<?xml version="1.0" encoding="UTF-8" standalone="no"?>
<!-- Created with Inkscape (http://www.inkscape.org/) -->

<svg
   width="820"
   height="462"
   viewBox="0 0 820 462"
   version="1.1"
   id="svg5"
   inkscape:version="1.2.1 (9c6d41e410, 2022-07-14)"
   sodipodi:docname="mylologozavrsno.svg"
   xmlns:inkscape="http://www.inkscape.org/namespaces/inkscape"
   xmlns:sodipodi="http://sodipodi.sourceforge.net/DTD/sodipodi-0.dtd"
   xmlns="http://www.w3.org/2000/svg"
   xmlns:svg="http://www.w3.org/2000/svg">
  <sodipodi:namedview
     id="namedview7"
     pagecolor="#ffffff"
     bordercolor="#000000"
     borderopacity="0.25"
     inkscape:showpageshadow="2"
     inkscape:pageopacity="0.0"
     inkscape:pagecheckerboard="0"
     inkscape:deskcolor="#d1d1d1"
     inkscape:document-units="px"
     showgrid="false"
     inkscape:zoom="1.0636576"
     inkscape:cx="388.28284"
     inkscape:cy="231.27743"
     inkscape:window-width="1366"
     inkscape:window-height="705"
     inkscape:window-x="-8"
     inkscape:window-y="-8"
     inkscape:window-maximized="1"
     inkscape:current-layer="layer1" />
  <defs
     id="defs2">
    <rect
       x="134.44176"
       y="145.72358"
       width="567.8519"
       height="101.53643"
       id="rect167" />
  </defs>
  <g
     inkscape:groupmode="layer"
     id="layer2"
     inkscape:label="MS kratica"
     style="fill:#000000"
     sodipodi:insensitive="true">
    <path
       style="display:inline;fill:#000000"
       id="path566"
       d="m 220.93794,287.41836 c 2.11384,-7.97865 6.60315,-15.22509 10.55025,-22.40776 8.01119,-14.1766 16.8201,-27.88586 25.60504,-41.59064 10.07231,-15.49677 21.04596,-30.38681 32.14464,-45.15783 9.9174,-13.0426 19.55661,-26.29432 29.85162,-39.04426 6.25193,-7.658 12.79352,-15.0672 19.71595,-22.12375 1.40317,-1.38136 2.78721,-2.80051 4.3194,-4.0434 0.24044,-0.19504 1.11326,-0.85754 1.26248,-0.79808 0.15367,0.0612 0.0754,0.32212 0.11309,0.48318 -2.03295,-1.08167 -3.89084,-2.5911 -6.09885,-3.24501 -0.45847,-0.13578 0.052,0.96093 -0.0151,1.43435 -0.12221,0.8632 -0.30401,1.72055 -0.55,2.55693 -1.51284,5.14362 -4.06689,9.93815 -6.38327,14.74369 -6.78651,13.24865 -13.59824,26.48469 -20.41277,39.71919 -3.27214,6.45501 -6.6485,12.86859 -9.526,19.51325 -1.58476,3.79685 -0.89101,3.73358 6.60978,4.97354 0.62831,0.10387 0.82811,-0.9679 1.22977,-1.4621 0.6716,-0.82631 1.3265,-1.66606 1.98975,-2.49909 8.54642,-10.9088 17.83192,-21.18955 27.249,-31.34417 10.58477,-11.43937 21.48297,-22.57468 32.7635,-33.3274 6.83737,-6.41886 13.95475,-12.56291 21.73598,-17.8134 1.526,-0.84615 2.97135,-2.01512 4.67585,-2.51741 0.27979,-0.0825 0.57938,-0.17502 0.86637,-0.12292 0.22926,0.0416 0.79099,0.49054 0.58276,0.38601 -1.95395,-0.98085 -3.88259,-2.01132 -5.82388,-3.01698 0.10942,0.43019 0.31403,0.84691 0.32826,1.29057 0.12872,4.01336 -1.88504,8.45948 -3.43283,11.97454 -2.22275,5.04792 -5.31191,10.79466 -7.81331,15.62524 -12.35456,23.00226 -25.40788,45.61859 -38.10799,68.43016 -13.47495,24.15859 -25.98726,48.83228 -38.84352,73.32107 -8.57234,16.0817 -16.69313,32.3964 -25.00665,48.61173 0,0 3.74946,2.13523 3.74946,2.13523 v 0 c 8.00784,-16.37135 16.34645,-32.57127 24.86436,-48.68347 12.87246,-24.47799 25.34778,-49.16802 38.73235,-73.37342 12.70032,-22.81476 25.98881,-45.28474 39.10211,-67.86279 2.3316,-4.04409 6.3504,-10.9012 8.61714,-15.22453 1.86214,-3.55166 4.12588,-7.67178 4.60772,-11.77279 0.0588,-0.50067 -0.0486,-1.00706 -0.0729,-1.51059 -2.24624,-1.48725 -4.42723,-3.07806 -6.7387,-4.461738 -1.26714,-0.75853 -5.16124,2.584698 -6.04574,3.112698 -7.39858,5.65112 -14.32744,11.87427 -20.9535,18.41242 -11.08379,10.92514 -21.90291,22.10652 -32.45009,33.552 -9.54521,10.14826 -18.97074,20.40364 -28.37612,30.68014 -0.75155,0.76634 -1.48313,1.55281 -2.25467,2.29903 -0.44045,0.42599 -1.78872,0.75975 -1.37908,1.21544 1.5701,1.74653 4.02965,2.42772 5.91414,3.82925 0.13274,0.0987 -0.31305,0.36928 -0.42831,0.25063 -0.38789,-0.39931 0.97161,-1.37605 0.37483,-1.62747 2.18012,-6.92885 5.28583,-13.52022 8.37986,-20.07712 6.51762,-13.38307 13.25985,-26.65718 20.44027,-39.69885 2.53437,-4.71489 5.28823,-9.40517 7.30226,-14.37969 0.33398,-0.8249 0.61562,-1.67204 0.85588,-2.52894 0.141,-0.50289 0.65165,-1.16857 0.28516,-1.54068 -1.84548,-1.87378 -4.25174,-3.0968 -6.3776,-4.64519 -2.16317,0.71163 -3.95619,4.13292 -5.64571,5.5101 -6.51704,7.37476 -12.80439,14.94964 -18.91133,22.6673 -10.0395,12.93021 -19.56148,26.24597 -29.38853,39.33685 -11.0797,14.80734 -22.08883,29.68392 -32.29131,45.1156 -8.84722,13.68271 -17.76009,27.33868 -25.99981,41.39884 -10.2083,17.5376 2.77075,-4.75322 -6.65515,11.41484 -1.25522,2.15307 -2.96312,4.98396 -4.11678,7.30758 -0.65283,1.31486 -0.80178,1.83599 -1.23709,3.08528 0,0 6.51749,3.51479 6.51749,3.51479 z"
       inkscape:label="M"
       sodipodi:insensitive="true" />
    <path
       style="fill:#ff0000"
       id="path751"
       d="m 545.80055,119.70487 c -4.29466,-3.30224 -9.04796,-5.88166 -14.23661,-7.35022 -5.86034,-1.38769 -11.89818,-1.32217 -17.87039,-1.02269 -12.49701,1.1048 -24.89289,3.3788 -36.89246,7.06546 -2.89155,0.88838 -5.7376,1.91862 -8.6064,2.87793 -11.70381,4.33687 -23.12606,9.47029 -33.91552,15.76288 -6.6449,3.87541 -8.44303,5.24657 -14.7373,9.51387 -9.05263,6.64461 -18.07997,13.69308 -25.10834,22.54915 -0.93863,1.18273 -1.76125,2.45305 -2.64188,3.67957 -2.57765,4.28039 -4.25406,8.36264 -1.37564,13.03933 1.97213,3.20419 3.84686,4.20526 6.82979,6.57159 3.4772,2.00723 6.87024,4.16786 10.43159,6.02168 3.83522,1.99638 10.40831,4.27535 14.38448,5.57468 9.05824,2.96003 18.29904,5.16629 27.55373,7.40373 13.04298,3.0919 26.14733,6.02031 38.92254,10.12024 7.15413,2.29597 8.62496,2.98517 15.42039,5.63978 4.37811,1.98895 7.31309,3.15245 11.37078,5.60351 0.33379,0.20163 -1.36655,-0.64247 -1.11906,-0.34111 0.82258,1.00162 2.03329,1.61954 2.93419,2.55133 2.23356,2.31012 2.05854,2.60914 3.23611,5.44526 0.0795,1.03712 0.313,2.07387 0.23841,3.11135 -0.46815,6.51097 -5.51011,12.07492 -10.1936,16.08569 -1.98465,1.69958 -4.1624,3.15978 -6.2436,4.73967 -19.22734,12.46754 -41.34928,19.22154 -62.99353,26.15667 -23.97287,7.2031 -48.21876,13.44 -72.28964,20.3025 -13.30787,3.74806 -26.48707,7.94242 -39.7969,11.68143 -2.03854,0.57834 -4.10009,1.06402 -6.17205,1.50375 0,0 5.89375,4.05128 5.89375,4.05128 v 0 c 1.87907,-0.61728 3.75479,-1.24515 5.61206,-1.92604 12.59168,-4.53542 25.21665,-8.97576 38.02351,-12.87665 23.81101,-7.27456 47.88142,-13.62647 71.75864,-20.67406 12.20244,-3.81065 24.40806,-7.61248 36.36244,-12.16149 6.89589,-2.6241 13.49712,-5.34714 20.05001,-8.73677 2.7081,-1.40082 5.29695,-3.02103 7.94542,-4.53155 7.03643,-4.87134 16.88521,-11.15529 17.94811,-20.64866 0.1224,-1.09318 -0.0879,-2.19827 -0.13179,-3.2974 -0.39136,-1.01117 -0.63423,-2.09319 -1.17407,-3.03351 -1.09502,-1.90733 -3.53054,-4.32861 -5.28932,-5.51386 -6.33733,-4.27076 -13.06196,-7.89401 -20.13896,-10.75995 -6.69854,-2.51582 -7.97929,-3.1021 -15.03813,-5.29252 -12.75243,-3.95718 -25.80882,-6.79548 -38.7669,-9.97259 -14.66985,-3.62988 -29.52296,-7.23869 -43.13902,-13.9843 -3.20182,-2.50022 -6.74249,-4.90371 -7.86201,-9.09665 -0.91903,-3.44202 0.64011,-6.64268 2.17758,-9.60243 0.80745,-1.24816 1.55236,-2.53906 2.42234,-3.74446 6.54758,-9.07205 15.32885,-16.25767 24.19665,-22.9328 6.30174,-4.38334 7.85031,-5.63192 14.54813,-9.57994 10.7463,-6.3344 22.147,-11.48847 33.89305,-15.66877 2.88092,-0.94063 5.73714,-1.96054 8.64275,-2.8219 12.30952,-3.6491 25.05734,-5.76007 37.88941,-6.19939 6.13265,-0.0265 12.35173,0.0232 18.31925,1.62148 1.59181,0.50972 2.14107,0.6337 3.63053,1.30095 0.48536,0.21743 1.87883,0.99458 1.426,0.71566 -9.05478,-5.5772 -5.10417,-3.07702 -3.18061,-1.66289 0,0 6.85209,2.74218 6.85209,2.74218 z"
       inkscape:label="S"
       sodipodi:insensitive="true" />
  </g>
  <g
     inkscape:label="logo"
     inkscape:groupmode="layer"
     id="layer1">
    <text
       xml:space="preserve"
       style="font-size:68.0315px;line-height:50;fill:#000000"
       x="424.89987"
       y="243.49942"
       id="text113"><tspan
         sodipodi:role="line"
         id="tspan111"
         x="424.89984"
         y="243.49942"
         style="font-style:normal;font-variant:normal;font-weight:bold;font-stretch:normal;font-size:68.0315px;font-family:'Book Antiqua';-inkscape-font-specification:'Book Antiqua, Bold';font-variant-ligatures:normal;font-variant-caps:normal;font-variant-numeric:normal;font-variant-east-asian:normal;text-align:center;text-anchor:middle"><tspan
   style="font-style:normal;font-variant:normal;font-weight:bold;font-stretch:normal;font-size:68.0315px;font-family:'Book Antiqua';-inkscape-font-specification:'Book Antiqua, Bold';font-variant-ligatures:normal;font-variant-caps:normal;font-variant-numeric:normal;font-variant-east-asian:normal;fill:#ff0000"
   id="tspan279">MYLO</tspan> STUDIOS</tspan></text>
    <text
       xml:space="preserve"
       id="text165"
       style="fill:#000000;font-size:68.03149606px;text-align:center;white-space:pre;shape-inside:url(#rect167)"
       inkscape:label="mylostudios" />
  </g>
</svg>
